<svg width="41" height="42" viewBox="0 0 41 42" fill="none" xmlns="http://www.w3.org/2000/svg">
<path fill-rule="evenodd" clip-rule="evenodd" d="M12.0328 0.30384C8.69563 0.454412 5.80317 1.2703 3.46756 3.59604C1.1238 5.934 0.31804 8.83791 0.167092 12.1403C0.0732596 14.2016 -0.475424 29.7737 1.11564 33.8575C2.18859 36.6125 4.3018 38.7309 7.08209 39.8072C8.37942 40.3119 9.86038 40.6534 12.0328 40.7532C30.1975 41.5752 36.9309 41.1277 39.7704 33.8575C40.2742 32.5633 40.621 31.0837 40.7169 28.9167C41.5471 10.7055 40.5823 6.75807 37.4164 3.59604C34.9054 1.09124 31.9517 -0.613839 12.0328 0.30384ZM12.2 37.0906C10.2112 37.0011 9.13213 36.6697 8.41208 36.3909C6.60071 35.6869 5.24015 34.3319 4.54048 32.5312C3.32883 29.4281 3.73069 14.6903 3.8388 12.3055C3.94487 9.96958 4.4181 7.83471 6.06629 6.18656C8.10611 4.15178 10.7415 3.15455 28.6859 3.9644C31.0276 4.0702 33.1675 4.54246 34.8197 6.18656C36.8595 8.22132 37.8713 10.877 37.0472 28.7525C36.9575 30.7364 36.625 31.8129 36.3455 32.5312C34.4995 37.262 30.2525 37.9187 12.2 37.0906ZM28.8838 9.66594C28.8838 11.013 29.9792 12.1083 31.3316 12.1083C32.684 12.1083 33.7815 11.013 33.7815 9.66594C33.7815 8.31893 32.684 7.22457 31.3316 7.22457C29.9792 7.22457 28.8838 8.31893 28.8838 9.66594ZM9.96847 20.5275C9.96847 26.2981 14.658 30.9767 20.443 30.9767C26.228 30.9767 30.9175 26.2981 30.9175 20.5275C30.9175 14.7569 26.228 10.0813 20.443 10.0813C14.658 10.0813 9.96847 14.7569 9.96847 20.5275ZM13.6442 20.5275C13.6442 16.7835 16.6877 13.7459 20.443 13.7459C24.1983 13.7459 27.2418 16.7835 27.2418 20.5275C27.2418 24.2735 24.1983 27.3121 20.443 27.3121C16.6877 27.3121 13.6442 24.2735 13.6442 20.5275Z" fill="#808080"/>
</svg>
