<svg width="169" height="41" viewBox="0 0 169 41" fill="none" xmlns="http://www.w3.org/2000/svg">
<g clip-path="url(#clip0_358_35)">
<path fill-rule="evenodd" clip-rule="evenodd" d="M10.0148 3V40.5H0V3H10.0148Z" fill="#976E72"/>
<path fill-rule="evenodd" clip-rule="evenodd" d="M15.0222 3H36.3037C43.2175 3 48.8222 8.59644 48.8222 15.5C48.8222 22.4036 43.2175 28 36.3037 28H25.037V40.5H15.0222V3ZM25.037 18H36.3037C37.6865 18 38.8074 16.8807 38.8074 15.5C38.8074 14.1193 37.6865 13 36.3037 13H25.037V18Z" fill="#976E72"/>
<path fill-rule="evenodd" clip-rule="evenodd" d="M86.3778 3V22.375C86.3778 26.8623 90.0208 30.5 94.5148 30.5C99.0088 30.5 102.652 26.8623 102.652 22.375V3H112.667V22.375C112.667 32.3852 104.54 40.5 94.5148 40.5C84.4898 40.5 76.363 32.3852 76.363 22.375V3H86.3778Z" fill="#976E72"/>
<path fill-rule="evenodd" clip-rule="evenodd" d="M52.5778 20.5C52.5778 10.835 60.4244 3 70.1037 3H72.6074V13H70.1037C65.9554 13 62.5926 16.3579 62.5926 20.5V21.75C62.5926 32.1053 54.1855 40.5 43.8148 40.5H42.563V30.5H43.8148C48.6545 30.5 52.5778 26.5825 52.5778 21.75V20.5Z" fill="#976E72"/>
<path d="M169 4.25C169 6.32107 167.319 8 165.244 8C163.17 8 161.489 6.32107 161.489 4.25C161.489 2.17893 163.17 0.5 165.244 0.5C167.319 0.5 169 2.17893 169 4.25Z" fill="#976E72"/>
<path d="M169 4.25C169 6.32107 167.319 8 165.244 8C163.17 8 161.489 6.32107 161.489 4.25C161.489 2.17893 163.17 0.5 165.244 0.5C167.319 0.5 169 2.17893 169 4.25Z" fill="white" fill-opacity="0.2"/>
<path d="M123.42 40.5L128.199 20.5181L131.752 32.5393C133.87 39.7091 144.041 39.7091 146.16 32.5393L149.712 20.5181L154.491 40.5H164.787L157.273 9.0795C155.486 1.60745 144.941 1.33079 142.763 8.69892L138.956 21.5833L135.148 8.69893C132.971 1.33083 122.425 1.60741 120.638 9.07949L113.124 40.5H123.42Z" fill="#976E72"/>
</g>
<defs>
<clipPath id="clip0_358_35">
<rect width="169" height="40" fill="white" transform="translate(0 0.5)"/>
</clipPath>
</defs>
</svg>
