<svg width="39" height="40" viewBox="0 0 39 40" fill="none" xmlns="http://www.w3.org/2000/svg">
<path d="M14.625 37.0833C15.5225 37.0833 16.25 36.4304 16.25 35.625C16.25 34.8195 15.5225 34.1666 14.625 34.1666C13.7275 34.1666 13 34.8195 13 35.625C13 36.4304 13.7275 37.0833 14.625 37.0833Z" stroke="#976E72" stroke-width="2" stroke-linecap="round" stroke-linejoin="round"/>
<path d="M32.5 37.0833C33.3975 37.0833 34.125 36.4304 34.125 35.625C34.125 34.8195 33.3975 34.1666 32.5 34.1666C31.6025 34.1666 30.875 34.8195 30.875 35.625C30.875 36.4304 31.6025 37.0833 32.5 37.0833Z" stroke="#976E72" stroke-width="2" stroke-linecap="round" stroke-linejoin="round"/>
<path d="M1.625 6.45837H8.125L12.48 25.9855C12.6286 26.6569 13.0356 27.26 13.6298 27.6892C14.2239 28.1185 14.9674 28.3465 15.73 28.3334H31.525C32.2876 28.3465 33.0311 28.1185 33.6252 27.6892C34.2194 27.26 34.6264 26.6569 34.775 25.9855L37.375 13.75H9.75" fill="#976E72"/>
</svg>
