<svg width="31" height="32" viewBox="0 0 31 32" fill="none" xmlns="http://www.w3.org/2000/svg">
<g clip-path="url(#clip0_358_160)">
<path d="M29.0626 26.4425V29.0259C29.0626 29.7393 28.4843 30.3175 27.7709 30.3175H9.81215C8.60599 30.3175 7.56036 29.4829 7.29305 28.3067L1.65034 3.4788C1.46664 2.67053 2.081 1.90088 2.90988 1.90088H7.37288C7.97227 1.90088 8.49292 2.31324 8.6302 2.8967L13.5626 23.8592H26.4792C27.906 23.8592 29.0626 25.0158 29.0626 26.4425Z" stroke="#808080" stroke-width="4" stroke-linecap="round" stroke-linejoin="round"/>
<path d="M8.99951 4.48438H11.6251C12.3385 4.48438 12.9168 5.06268 12.9168 5.77604V8.35937L10.3334 10.2969" stroke="#808080" stroke-width="4" stroke-linecap="round" stroke-linejoin="round"/>
<path d="M17.4375 19.1768H12.4323H9.6875" stroke="#808080" stroke-width="4" stroke-linecap="round" stroke-linejoin="round"/>
</g>
<defs>
<clipPath id="clip0_358_160">
<rect width="31" height="31" fill="white" transform="translate(0 0.609375)"/>
</clipPath>
</defs>
</svg>
