<svg width="31" height="32" viewBox="0 0 31 32" fill="none" xmlns="http://www.w3.org/2000/svg">
<path d="M10.9684 13.753L14.8935 16.781L14.9481 16.8123L14.9725 16.826C15.312 17.015 15.7613 16.9148 16.0609 16.5851L16.0871 16.56L20.8977 10.8684C21.1716 10.5614 21.1762 10.1195 20.9097 9.88254C20.6426 9.64507 20.2047 9.70205 19.9319 10.009L15.4351 14.8128L11.9634 12.3952C11.6387 12.1561 11.1518 12.2671 10.8767 12.6424C10.6022 13.0166 10.6426 13.5143 10.9684 13.753Z" fill="#808080"/>
<path d="M6.08143 15.6084C6.08143 15.4005 6.08597 15.1927 6.10795 14.9888H3.64395C3.62887 15.1926 3.62488 15.4005 3.62488 15.6084C3.62488 15.8203 3.62887 16.0247 3.64395 16.2292H6.10795C6.08597 16.0247 6.08143 15.8174 6.08143 15.6084Z" fill="#808080"/>
<path d="M10.4393 7.66497C10.6723 7.51748 10.91 7.37852 11.1515 7.25494L11.2455 7.20935L10.0176 5.07715C9.71034 5.23203 9.41105 5.40399 9.12061 5.59253L10.3491 7.72588L10.4393 7.66497Z" fill="#808080"/>
<path d="M4.96887 10.1259L7.10198 11.3538L7.61827 10.458L5.48432 9.22949C5.29577 9.51994 5.12406 9.81838 4.96887 10.1259Z" fill="#808080"/>
<path d="M23.8548 19.9573C23.7266 20.1994 23.5919 20.4363 23.4404 20.6658L23.3789 20.7558L25.5126 21.9842C25.7014 21.6937 25.8734 21.3993 26.0322 21.0923L23.904 19.8599L23.8548 19.9573Z" fill="#808080"/>
<path d="M7.14697 19.9533L7.09768 19.8599L4.96887 21.0878C5.12036 21.3948 5.29571 21.6937 5.48426 21.9842L7.61821 20.7558L7.55609 20.6658C7.40896 20.4362 7.27 20.1994 7.14697 19.9533Z" fill="#808080"/>
<path d="M10.4393 23.5488L10.3491 23.4873L9.12061 25.6212C9.41112 25.8097 9.71034 25.9857 10.0176 26.1412L11.2455 24.0078L11.1515 23.9623C10.91 23.8392 10.6722 23.7003 10.4393 23.5488Z" fill="#808080"/>
<path d="M19.7513 7.2059L20.6481 7.72588L21.8762 5.59253C21.586 5.40399 21.2905 5.23203 20.9843 5.07715L19.7513 7.2059Z" fill="#808080"/>
<path d="M14.8806 25.0017V27.4626C15.0851 27.4808 15.2923 27.4848 15.5 27.4848C15.7084 27.4848 15.916 27.4808 16.1199 27.4626V25.0017V24.9761H14.8806V25.0017Z" fill="#808080"/>
<path d="M16.1199 6.21696V3.75611C15.916 3.73782 15.7084 3.73389 15.5 3.73389C15.2923 3.73389 15.0851 3.73782 14.8806 3.75611V6.21696V6.24257H16.1199V6.21696Z" fill="#808080"/>
<path d="M19.7513 24.0118L20.9843 26.1412C21.2905 25.9812 21.586 25.8097 21.8762 25.6212L20.6481 23.4873L19.7513 24.0118Z" fill="#808080"/>
<path d="M26.0322 10.1259C25.8765 9.81838 25.7013 9.52 25.5126 9.22949L23.3789 10.458L23.8997 11.3538L26.0322 10.1259Z" fill="#808080"/>
<path d="M27.357 14.9888H24.8933H24.8677V16.2292H24.8933H27.357C27.3724 16.0247 27.3758 15.8174 27.3758 15.6084C27.3758 15.4005 27.3724 15.1926 27.357 14.9888Z" fill="#808080"/>
<path d="M15.5 0.108887C6.93887 0.109432 0.000544932 7.0483 0 15.6092C0.000544932 24.1701 6.93887 31.1089 15.5 31.1095C24.0611 31.1089 30.9995 24.1701 31 15.6092C30.9995 7.0483 24.0611 0.109432 15.5 0.108887ZM15.5 29.1093C11.7686 29.1087 8.39965 27.6001 5.95393 25.1553C3.50931 22.7087 2.00039 19.34 2.00008 15.6092C2.00039 11.8783 3.50931 8.50914 5.95387 6.06367C8.39965 3.61813 11.7686 2.10952 15.5 2.10897C19.2309 2.10958 22.5997 3.61819 25.0461 6.06367C27.4907 8.50914 28.9996 11.8777 28.9999 15.6092C28.9996 19.34 27.4906 22.7087 25.0461 25.1553C22.5997 27.6002 19.2309 29.1088 15.5 29.1093Z" fill="#808080"/>
</svg>
