<svg width="31" height="32" viewBox="0 0 31 32" fill="none" xmlns="http://www.w3.org/2000/svg">
<path d="M4.53979 4.64923C7.46727 1.72163 11.3597 0.109375 15.5 0.109375C19.6401 0.109375 23.5325 1.72163 26.4602 4.64923C29.3877 7.57671 31 11.4692 31 15.6094C31 19.7495 29.3877 23.642 26.4602 26.5695C23.5325 29.4971 19.6401 31.1094 15.5 31.1094C11.3597 31.1094 7.46727 29.4971 4.53979 26.5695C1.61231 23.6419 -1.90735e-06 19.7495 -1.90735e-06 15.6094C-1.90735e-06 11.4692 1.61225 7.57671 4.53979 4.64923ZM15.5 2.77601C9.01353 2.77601 3.63649 7.61353 2.785 13.8701L11.6225 11.479C12.6362 10.527 13.9995 9.94264 15.5 9.94264C17.0005 9.94264 18.3638 10.5269 19.3775 11.479L28.215 13.8701C27.3635 7.61353 21.9864 2.77601 15.5 2.77601ZM28.215 17.3486L19.7306 19.7063L18.1452 28.1679C23.4012 27.0621 27.4824 22.7306 28.215 17.3486ZM15.5 18.5871C17.1445 18.5871 18.4778 17.254 18.4778 15.6094C18.4778 13.9648 17.1445 12.6316 15.5 12.6316C13.8555 12.6316 12.5224 13.9648 12.5224 15.6094C12.5224 17.254 13.8555 18.5871 15.5 18.5871ZM12.8546 28.1679L11.2693 19.7063L2.78506 17.3486C3.51749 22.7306 7.59879 27.0621 12.8546 28.1679Z" fill="#808080"/>
</svg>
