<svg width="26" height="22" viewBox="0 0 26 22" fill="none" xmlns="http://www.w3.org/2000/svg">
<path d="M3.63107 20.9169C3.76927 20.9169 3.88122 20.7975 3.88122 20.6501V13.1526C3.88122 13.0053 3.76927 12.8859 3.63107 12.8859H1.62988C1.59703 12.8859 1.5645 12.8928 1.53414 12.9062C1.50379 12.9196 1.47621 12.9392 1.45298 12.964C1.42975 12.9888 1.41133 13.0182 1.39876 13.0505C1.38619 13.0829 1.37972 13.1176 1.37973 13.1526V20.6501C1.37973 20.7975 1.49169 20.9169 1.62988 20.9169H3.63107ZM3.63107 21.9838H1.62988C0.939087 21.9838 0.379134 21.3867 0.379134 20.6501V13.1526C0.379134 12.416 0.939087 11.8189 1.62988 11.8189H3.63107C4.32187 11.8189 4.88182 12.416 4.88182 13.1526V20.6501C4.88182 21.3867 4.32187 21.9838 3.63107 21.9838ZM10.4323 20.9169C10.5705 20.9169 10.6825 20.7975 10.6825 20.6501V11.6044C10.6825 11.4571 10.5705 11.3377 10.4323 11.3377H8.43115C8.3983 11.3377 8.36577 11.3446 8.33542 11.358C8.30507 11.3714 8.27749 11.391 8.25426 11.4158C8.23103 11.4405 8.2126 11.47 8.20003 11.5023C8.18746 11.5347 8.181 11.5694 8.18101 11.6044V20.6501C8.18101 20.7975 8.29296 20.9169 8.43115 20.9169H10.4323ZM10.4323 21.9838H8.43115C7.74036 21.9838 7.18041 21.3867 7.18041 20.6501V11.6044C7.18041 10.8678 7.74036 10.2707 8.43115 10.2707H10.4323C11.1231 10.2707 11.6831 10.8678 11.6831 11.6044V20.6501C11.6831 21.3867 11.1231 21.9838 10.4323 21.9838ZM17.2336 20.933C17.3718 20.933 17.4838 20.8136 17.4838 20.6662V10.072C17.4838 9.92484 17.3717 9.8053 17.2336 9.8053H15.2324C15.0944 9.8053 14.9823 9.92484 14.9823 10.072V20.6662C14.9823 20.8136 15.0942 20.933 15.2324 20.933H17.2336ZM17.2336 21.9999H15.2324C14.5416 21.9999 13.9817 21.4028 13.9817 20.6662V10.072C13.9817 9.3356 14.5417 8.73831 15.2324 8.73831H17.2336C17.9244 8.73831 18.4844 9.3356 18.4844 10.072V20.6662C18.4844 21.4028 17.9244 21.9999 17.2336 21.9999ZM24.0349 20.933C24.1731 20.933 24.285 20.8136 24.285 20.6663V8.73836C24.285 8.591 24.1731 8.47161 24.0349 8.47161H22.0337C22.0009 8.4716 21.9683 8.4785 21.938 8.4919C21.9076 8.50531 21.88 8.52495 21.8568 8.54972C21.8336 8.5745 21.8152 8.6039 21.8026 8.63627C21.79 8.66864 21.7836 8.70333 21.7836 8.73836V20.6663C21.7836 20.8136 21.8955 20.933 22.0337 20.933H24.0349ZM24.0349 22H22.0337C21.3429 22 20.783 21.4029 20.783 20.6663V8.73836C20.783 8.00173 21.3429 7.40462 22.0337 7.40462H24.0349C24.7257 7.40462 25.2856 8.00173 25.2856 8.73836V20.6663C25.2856 21.4029 24.7257 22 24.0349 22ZM23.8833 0.0687921C16.8331 4.30443 8.96433 6.80319 0.75575 7.33264C0.479951 7.35044 0.269889 7.60327 0.286574 7.89737C0.303258 8.19147 0.540363 8.41547 0.816162 8.39768C9.17701 7.8584 17.1929 5.31291 24.3745 0.998398C24.6152 0.853771 24.7004 0.528437 24.5648 0.271719C24.4291 0.0149997 24.1241 -0.0758353 23.8833 0.0687921Z" fill="#7A7A7A"/>
</svg>
