<svg width="25" height="28" viewBox="0 0 25 28" fill="none" xmlns="http://www.w3.org/2000/svg">
<path d="M19.5568 0C18.9493 0 18.6861 0.379167 18.4675 0.77C18.4675 0.77 9.70713 16.198 9.41688 16.7032C9.4345 16.7312 15.1972 27.23 15.1972 27.23C15.397 27.5893 15.7095 28 16.3335 28H20.3923C20.6403 28 20.833 27.909 20.9364 27.7433C21.041 27.5672 21.041 27.3397 20.9258 27.118L15.1925 16.716C15.1878 16.709 15.1878 16.6973 15.1925 16.6903L24.1996 0.882C24.3113 0.659167 24.3136 0.4305 24.2067 0.257833C24.1021 0.0909999 23.9117 0 23.6673 0H19.5568ZM2.47086 5.53C2.22292 5.53 2.01845 5.61633 1.91504 5.782C1.80928 5.95583 1.82338 6.1775 1.93854 6.4015L4.68827 11.1265C4.69298 11.1382 4.69298 11.1452 4.68827 11.151L0.369784 18.7262C0.253449 18.9455 0.2605 19.1707 0.369784 19.3433C0.469668 19.509 0.650633 19.6163 0.898579 19.6163H4.9656C5.5743 19.6163 5.86573 19.2103 6.07607 18.8382L10.4639 11.1277L7.6695 6.28017C7.46739 5.91267 7.15951 5.51133 6.53906 5.51133H2.47086V5.53Z" fill="#969696"/>
</svg>
