<svg width="41" height="42" viewBox="0 0 41 42" fill="none" xmlns="http://www.w3.org/2000/svg">
<path d="M26.9108 3.20609C29.0268 3.20609 31.4277 4.23425 32.773 5.94678C34.4458 5.5494 36.0244 4.82244 37.4432 3.81478C36.8955 5.86636 35.7267 7.58836 34.2086 8.67644C35.6945 8.4604 37.1172 7.99205 38.4355 7.29032C37.4484 9.05175 36.2022 10.6019 34.7641 11.8429C34.777 12.2182 34.7847 12.5967 34.7847 12.9751C34.7847 24.5923 27.6428 37.8984 14.1039 37.8984C9.94918 37.8984 5.81508 36.5312 2.56116 34.0365C3.13591 34.1217 3.72226 34.1627 4.31505 34.1627C7.76357 34.1627 10.9376 32.7576 13.4596 30.3954C10.2353 30.3276 7.51614 27.784 6.58314 24.2943C7.03031 24.3952 7.49424 24.452 7.96847 24.452C8.63601 24.452 9.28937 24.3463 9.90536 24.1429C6.53803 23.3402 4.0019 19.7859 4.0019 15.5266C4.0019 15.4856 4.0019 15.4493 4.0019 15.4115C4.99548 16.0706 6.12823 16.468 7.33573 16.5153C5.36018 14.9337 4.06247 12.2482 4.06247 9.19682C4.06247 7.58521 4.42459 6.07294 5.05733 4.77986C8.68627 10.0925 14.1116 13.5949 20.2303 13.9639C20.1027 13.3205 20.037 12.6424 20.037 11.9627C20.037 7.10582 22.8437 3.20609 26.9108 3.20609ZM38.4355 7.29032H38.442H38.4355ZM26.9108 0.0522461C21.9571 0.0522461 18.1259 4.39352 17.5511 10.3842C13.4415 9.36398 9.70304 6.68163 7.01742 2.75036C6.52901 2.03444 5.80993 1.62602 5.05733 1.62602C4.99032 1.62602 4.92331 1.62917 4.8563 1.63548C4.03154 1.7159 3.28926 2.28044 2.86271 3.15248C1.97223 4.9754 1.50057 7.06482 1.50057 9.19682C1.50057 10.6176 1.70934 12.0037 2.1011 13.2984C1.68227 13.8692 1.44129 14.6199 1.44129 15.4115V15.5266C1.44129 18.6158 2.43229 21.4811 4.07922 23.6304C3.98515 24.1697 4.00577 24.739 4.1501 25.2799C4.7197 27.4087 5.75322 29.2411 7.09346 30.6382C6.19267 30.8842 5.26352 31.0088 4.31505 31.0088C3.81376 31.0088 3.32792 30.9741 2.87044 30.9047C2.76606 30.8906 2.66296 30.8827 2.55987 30.8827C1.48639 30.8827 0.51086 31.7137 0.146163 32.9879C-0.253329 34.3819 0.187401 35.932 1.20804 36.7141C4.85759 39.5116 9.43757 41.0522 14.1039 41.0522C22.9172 41.0522 28.3902 36.0739 31.4289 31.8982C35.1146 26.8347 37.259 20.1076 37.3427 13.3851C38.5373 12.1662 39.5915 10.7596 40.4845 9.18578C40.808 8.65909 41 8.00152 41 7.29032C41 6.21644 40.5657 5.26871 39.902 4.69786C40.1894 3.48363 39.8595 2.16848 39.058 1.36582C38.5902 0.899054 38.018 0.660938 37.4419 0.660938C37.0025 0.660938 36.5605 0.799708 36.1623 1.08355C35.3053 1.69225 34.3891 2.17163 33.4238 2.5154C31.6506 0.985785 29.2446 0.0522461 26.9108 0.0522461Z" fill="#808080"/>
</svg>
