<svg width="33" height="28" viewBox="0 0 33 28" fill="none" xmlns="http://www.w3.org/2000/svg">
<path d="M16.0068 27.9925L15.9983 28H15.6938H6.73381H6.7333C3.20302 28 0.635783 25.4737 0.318323 22.5891C0.181053 21.3412 0.464227 20.0263 1.2735 18.8195L8.53038 7.99966L3.16492 0H19.2624L14.1141 7.67591C15.4763 7.3434 17.6313 7.08981 18.7479 7.24104L18.3403 8.13065C17.3414 8.06711 15.4721 8.30081 14.2949 8.59309L21.1539 18.8195C23.7788 22.7328 20.8768 27.7837 16.0068 27.9925ZM32.2852 15.4576L24.1569 20.1067L17.4533 9.96325L18.3593 8.13515C18.5062 8.14296 18.6555 8.15385 18.8072 8.16864C19.7487 8.26058 20.5494 8.4731 21.1212 8.77047C20.981 9.16321 21.0208 9.60873 21.2713 9.98905C21.7216 10.6726 22.6812 10.8866 23.4147 10.467C24.1483 10.0474 24.3779 9.15315 23.9276 8.46967C23.4773 7.78619 22.5177 7.57213 21.7842 7.99173C21.7677 8.0012 21.7517 8.01114 21.7357 8.02108C20.9262 7.56515 19.8459 7.31062 18.7663 7.22045L19.8372 5.05807L25.5607 5.23154L32.2852 15.4576ZM29.371 14.4791L29.3777 14.4614L28.9264 13.7574L28.9066 13.8723C28.7831 14.5732 28.3389 15.183 27.6869 15.5486C27.2069 15.8158 26.6613 15.9286 26.1056 15.8754C25.5887 15.8261 25.0946 15.6292 24.6993 15.3182L27.6589 13.6707L27.5607 13.0567L24.2722 14.8872C24.2306 14.8318 24.1912 14.775 24.1541 14.7171C24.117 14.6592 24.082 14.5999 24.0492 14.5395L27.491 12.6236L27.3928 12.0096L23.8444 13.9849C23.6175 12.9958 24.0781 11.9838 25.0007 11.4477L25.0119 11.4416C25.0185 11.4379 25.0252 11.4341 25.0318 11.4304L25.0407 11.4255C25.6918 11.063 26.4784 10.9875 27.1979 11.2164L27.2693 11.2384L27.1699 10.6083L27.1414 10.6016C26.3158 10.4095 25.4593 10.5266 24.7282 10.9336L24.7172 10.9397C24.7083 10.9447 24.7017 10.9484 24.6927 10.9533C23.4798 11.648 22.9054 13.0187 23.2883 14.2887L22.7395 14.5943L22.8288 15.2133L23.5175 14.8299C23.5503 14.8903 23.5852 14.9495 23.6224 15.0075C23.6596 15.0655 23.699 15.1221 23.7407 15.1776L23.2629 15.4435L23.3611 16.0575L24.1455 15.6209C25.1818 16.5555 26.7625 16.7264 28.0024 16.0361C28.6378 15.6823 29.1238 15.1282 29.371 14.4791Z" fill="black" fill-opacity="0.44"/>
</svg>
